# xmcd
#
# Track frame offsets:
#	183
#	11015
#	21703
#	35113
#	48885
#	61773
#	75033
#	87478
#	101635
#	117868
#	132653
#	145155
#	157848
#	176178
#	190503
#	201893
#	215993
#	229605
#	242288
#	256565
#	269965
#	284793
#	299543
#	310808
#
# Disc length: 4277
#
# Revision: 2
# Processed by: cddbd v1.5.1PL0 Copyright (c) Steve Scherf et al.
# Submitted via: audiograbber 1.81.00
# Normalized: r1:TDELIM( - )
#
DISCID=6310b318
DTITLE=ITALIAN GRAFFITI - 1966-1967
DYEAR=1900
DGENRE=POP
TTITLE0=SOGNANDO LA CALIFORNIA - DIK DIK
TTITLE1=IO HO IN MENTE TE - EQUIPE 84
TTITLE2=PERDONO - CATERINA CASELLI
TTITLE3=RAGAZZO TRISTE - PATTI PRAVO
TTITLE4=LA BAMBOLINA CHE FA NO NO NO - QUELLI
TTITLE5=E LA PIOGGIA CHE VA - THE ROKEN
TTITLE6=NOTTE DI FERRAGOSTO - GIANNI MORANDI
TTITLE7=LEI - ADAMO
TTITLE8=SONO COME TU MI VUOI - MINA
TTITLE9=ADESSO TI - SERGIO ENDRIGO
TTITLE10=LONTANO LONTANO - LUIGI TENCO
TTITLE11=BANG BANG - I CORVI
TTITLE12=SE STASERA SONO QUI - WILMA GOICH
TTITLE13=LA MUSICA E FINITA - ORNELLA VANONI
TTITLE14=SE PERDO ANCHE TE - GIANNI MORANDI
TTITLE15=DITE A LAURA CHE L'AMO - MICHELE
TTITLE16=NON C'E' PIù' NIENTE DA FARE - BOBBY SOLO
TTITLE17=L'ULTIMA OCCASIONE - MINA
TTITLE18=CIAO AMORE CIAO - LUIGI TENCO
TTITLE19=QUI RITORNERà' - RITA PAVONE
TTITLE20=IL CIELO - LUCIO DALLA
TTITLE21=YEEEEEH! - THE PRIMITIVEN
TTITLE22=PUGNI CHIUSI - I RIBELLI
TTITLE23=RICORDO QUANDO ERO BAMBINO - THE ROKES
EXTD=
EXTT0=
EXTT1=
EXTT2=
EXTT3=
EXTT4=
EXTT5=
EXTT6=
EXTT7=
EXTT8=
EXTT9=
EXTT10=
EXTT11=
EXTT12=
EXTT13=
EXTT14=
EXTT15=
EXTT16=
EXTT17=
EXTT18=
EXTT19=
EXTT20=
EXTT21=
EXTT22=
EXTT23=
PLAYORDER=
